<svg width="442" height="109" viewBox="0 0 442 109" fill="none" xmlns="http://www.w3.org/2000/svg">
<g clip-path="url(#clip0)">
<path d="M108.331 52.9764C104.814 46.8817 100.828 41.2559 96.3724 35.6301V35.3957C96.1379 35.1613 95.669 34.4581 95.4345 34.2237C93.5586 31.6452 91.2138 10.0796 90.9793 8.43873C90.7448 6.56346 90.0414 4.68819 87.4621 4.21937C85.3517 3.98496 82.069 3.51615 78.3173 3.51615C76.6759 3.51615 75.7379 4.21937 75.269 5.15701C75.0345 5.62582 74.8 6.32905 74.8 7.03227C74.8 9.84518 74.8 11.2516 74.8 11.486C74.8 11.7204 74.5655 11.7204 74.5655 11.9549C74.331 12.1893 73.8621 12.1893 73.3931 11.9549C71.7517 10.5484 62.8414 3.98496 57.9173 0.937651C57.6828 0.703243 57.4483 0.703243 57.2138 0.468834C55.3379 -0.234392 53.2276 -0.4688 51.5862 0.703243C51.3517 0.703243 51.3517 0.937651 51.3517 0.937651C49.4759 1.87529 21.8069 17.8151 0.703456 52.7419C0.703456 52.7419 -0.703441 54.6172 0.468973 56.2581C1.4069 58.1333 10.5517 58.8366 11.9586 58.8366C13.6 59.071 13.6 60.4774 13.6 60.4774C13.8345 75.0108 14.069 82.043 16.4138 106.422C16.4138 106.422 16.8828 109 19.2276 109C20.1655 109 23.9173 108.766 34 108.531C34.469 108.531 34.7035 108.297 34.7035 107.828C34.7035 107.828 34.7035 107.828 34.7035 107.594C33.7655 97.7484 33.531 89.0753 33.2966 88.6065C33.2966 88.1376 33.0621 87.6688 32.5931 87.6688C28.8414 85.5592 26.731 81.8086 26.731 77.5893C26.4966 57.8989 27.669 42.6624 27.669 42.6624C27.669 42.6624 27.669 40.5527 29.5448 40.7871C31.4207 41.0215 31.1862 43.1312 31.1862 43.1312C30.4828 51.5699 30.2483 67.0409 30.2483 67.0409C30.2483 67.0409 30.2483 69.8538 33.0621 69.8538C35.8759 69.8538 35.8759 67.0409 35.8759 67.0409C35.8759 55.086 36.8138 43.1312 36.8138 43.1312C36.8138 43.1312 36.8138 41.0215 38.6897 41.0215C39.8621 41.0215 40.0966 41.7247 40.331 42.428C40.331 42.6624 40.331 43.1312 40.331 43.3656C40.0966 53.4452 39.8621 66.8065 39.8621 66.8065C39.8621 66.8065 39.8621 69.6194 42.6759 69.6194C45.4897 69.6194 45.4897 66.5721 45.4897 66.5721C45.4897 56.7269 46.4276 42.8968 46.4276 42.8968C46.4276 41.7247 47.131 40.7871 48.3035 40.7871C49.9448 40.7871 50.1793 42.428 49.9448 42.8968C49.2414 53.6796 49.2414 70.0882 49.2414 77.1204C49.4759 81.3398 47.131 85.3247 43.6138 87.6688C43.3793 87.9032 43.1448 88.3721 43.1448 88.6065C43.3793 95.1699 43.8483 102.437 44.3173 107.594C44.3173 107.828 44.5517 108.297 45.0207 108.297C47.8345 108.297 53.2276 108.297 56.5104 108.297C61.9035 108.297 64.0138 108.297 68 108.297C68.469 108.297 68.7035 108.062 68.7035 107.594C69.6414 98.2172 70.1104 91.4194 70.1104 90.7161C70.1104 90.0129 69.4069 90.0129 69.4069 90.0129C68.2345 89.7785 65.1862 89.5441 62.8414 89.0753C60.4966 88.6065 60.2621 85.7936 60.2621 85.7936C58.1517 56.2581 73.6276 37.9742 73.6276 37.9742C73.6276 37.9742 75.269 35.8645 77.3793 36.8022C79.2552 37.5054 79.7241 42.8968 79.7241 43.3656C81.8345 67.7441 79.4897 96.1075 78.0828 107.828C78.0828 108.297 78.3172 108.766 78.7862 108.766C79.2552 108.766 88.6345 109.234 89.5724 109C90.9793 108.766 92.3862 107.594 92.6207 106.187C95.9035 83.4495 95.4345 60.4774 95.4345 60.4774C95.4345 59.7742 96.1379 59.071 97.0759 58.8366L105.986 57.8989C107.159 57.6645 108.097 57.1957 108.566 56.2581C108.8 55.3204 108.8 53.914 108.331 52.9764Z" fill="#FF8000"/>
<path d="M155.696 37.2708H141.627C137.172 37.2708 137.172 37.2708 136 42.6622C135.062 48.0535 135.062 48.288 139.282 48.288H147.724L143.034 75.4794C141.862 81.574 139.282 85.7933 131.075 88.1374C128.965 88.6062 128.496 89.5439 128.496 90.4815C128.496 91.6535 128.965 92.5912 129.903 94.9353C131.31 98.217 132.013 98.6858 133.186 98.6858C134.358 98.6858 136.469 98.217 137.172 97.9826C148.662 94.232 153.586 85.3245 155.462 74.5417L160.855 43.8342C161.324 37.2708 161.324 37.2708 155.696 37.2708Z" fill="#FF8000"/>
<path d="M203.531 37.2708C197.903 37.2708 197.903 37.2708 196.965 41.9589L192.745 66.5718C191.572 73.8385 189.696 78.0578 182.662 78.0578C175.862 78.0578 173.283 73.8385 174.455 67.5095L178.441 43.8342C179.614 37.2708 179.379 37.2708 173.517 37.2708C167.89 37.2708 167.655 37.2708 166.952 41.7245L162.731 66.3374C160.152 80.4019 169.062 89.0751 181.49 89.0751C195.324 89.0751 202.359 82.746 204.703 67.9783L208.69 43.8342C209.627 37.2708 209.393 37.2708 203.531 37.2708Z" fill="#FF8000"/>
<path d="M229.558 77.8237C234.014 77.5893 236.593 75.4796 236.593 73.37C236.593 70.7915 233.31 69.8538 229.089 68.4474C220.648 65.8689 212.676 62.8216 212.676 53.6796C212.676 42.8968 221.586 37.0366 232.841 37.0366C237.531 37.0366 242.924 37.271 246.441 37.5054C249.489 37.9743 250.193 38.9119 249.255 43.6001C248.317 48.2882 247.145 48.7571 244.565 48.5226C241.283 48.2882 237.062 48.0538 232.138 48.0538C226.51 48.0538 224.634 50.1635 224.634 52.0388C224.634 54.6173 226.979 55.7893 232.138 57.4302C241.986 60.2431 248.552 64.228 248.552 72.9011C248.552 82.9807 241.048 88.8409 229.089 89.3097C222.524 89.5441 216.896 89.0753 211.972 88.3721C208.221 87.9033 207.986 87.9033 208.924 82.2775C209.862 77.3549 209.862 76.8861 213.379 77.3549C220.648 77.8237 224.869 78.0581 229.558 77.8237Z" fill="#FF8000"/>
<path d="M291.696 37.2708H259.572C255.117 37.2708 255.117 37.2708 253.945 42.8966C253.007 48.5224 253.241 48.5224 257.228 48.5224H267.779L261.917 82.5116C260.745 89.0751 260.979 89.0751 266.841 89.0751C272.469 89.0751 272.469 89.0751 273.407 84.3869L279.503 48.5224H289.586C294.041 48.5224 294.041 48.5224 295.214 42.8966C295.917 37.2708 295.917 37.2708 291.696 37.2708Z" fill="#FF8000"/>
<path d="M348.441 48.0536C352.896 48.0536 352.896 48.0536 354.069 42.4278C355.007 36.802 355.007 36.802 350.786 36.802H327.807C319.6 36.802 319.834 36.802 318.427 45.0063L312.331 79.6988C310.689 88.6063 310.924 88.6063 319.131 88.6063H341.641C346.331 88.6063 346.096 88.6063 347.269 83.2149C348.207 77.5891 348.207 77.5891 343.986 77.5891H324.524L326.165 67.7439H342.345C346.8 67.7439 346.8 67.7439 347.503 62.5869C348.207 57.1956 348.207 57.1955 342.345 57.1955H328.041L329.683 47.8192L348.441 48.0536Z" fill="#FF8000"/>
<path d="M372.828 66.3377L380.331 49.9291C380.8 48.5226 380.8 48.5226 381.973 48.5226C382.911 48.5226 382.911 48.5226 383.145 50.1635L385.49 66.3377H372.828ZM392.993 43.6001C391.821 37.0366 391.821 37.0366 382.676 37.0366C374.235 37.0366 374.235 37.0366 371.655 42.428L352.428 82.5119C349.614 88.1377 350.083 88.8409 357.118 88.8409C362.745 88.8409 362.745 88.8409 364.855 83.6839L367.904 76.8861H386.662L387.6 83.6839C388.304 88.8409 388.538 88.8409 394.166 88.8409C400.497 88.8409 400.966 88.3721 399.793 82.2775L392.993 43.6001Z" fill="#FF8000"/>
<path d="M438.248 37.2708H405.889C401.434 37.2708 401.434 37.2708 400.262 42.8966C399.089 48.5224 399.558 48.5224 403.544 48.5224H414.096L408.234 82.5116C407.062 89.0751 407.296 89.0751 413.158 89.0751C418.786 89.0751 418.786 89.0751 419.724 84.3869L425.82 48.5224H435.903C440.358 48.5224 440.358 48.5224 441.531 42.8966C442.469 37.2708 442.469 37.2708 438.248 37.2708Z" fill="#FF8000"/>
</g>
<defs>
<clipPath id="clip0">
<rect width="442" height="109" fill="white"/>
</clipPath>
</defs>
</svg>
