<svg width="209" height="84" viewBox="0 0 209 84" fill="none" xmlns="http://www.w3.org/2000/svg">
<g clip-path="url(#clip0)">
<path d="M24.4004 32.7C27.7004 34.5 42.0004 44.4 41.9004 49.2C41.8004 51.5 39.9004 54.1 37.4004 52.7C33.8004 50.9 16.3004 39.4 10.4004 38C9.20042 41.3 8.50042 43.2 7.60042 46.3C5.80042 52.4 -1.29958 43.9 0.400417 38.4C2.70042 30.6 6.10042 22.8 10.5004 16.6C8.70042 14.2 7.90042 10.2 14.2004 9.2C16.5004 8.8 17.7004 8.5 20.0004 8.5C25.1004 8.5 39.9004 8.9 40.5004 15.1C40.9004 21.2 31.0004 30.2 24.4004 32.7ZM20.7004 17.7C19.2004 19.5 17.8004 21.7 16.5004 24.2C19.7004 23.1 26.5004 20.4 29.7004 18.5C27.1004 17.9 23.9004 17.8 20.7004 17.7Z" fill="#010101"/>
<path d="M59.3003 28.8C56.2003 31.3 47.5003 32.5 43.3003 29.8C43.0003 31.1 42.6003 32.3 44.6003 32.9C49.4003 34.4 53.9003 33.4 58.4003 31.5C61.7003 30.1 62.6003 31 62.1003 32.8C61.7003 34.2 60.8003 36 59.1003 37.5C56.3003 39.9 50.8003 42.2 45.0003 42.2C41.1003 42.2 35.2003 40.4 35.5003 35C35.8003 28.1 39.0003 21.9 43.5003 17.5C47.3003 13.8 52.5003 11 57.4003 11C59.6003 11 63.2003 13 64.3003 15.9C66.1003 20.6 61.4003 27.2 59.3003 28.8ZM49.4003 23.7C50.9003 24.1 52.7003 23.8 53.9003 23.4C55.3003 22.9 56.9003 21.4 57.4003 20.1C55.0003 20.3 51.3003 21.5 49.4003 23.7Z" fill="#010101"/>
<path d="M70.1005 41.3C66.2005 41.3 63.7005 39 62.8005 35C61.9005 31.1 63.1005 27.4 64.8005 24.4C67.6005 19.7 77.0005 11.7 82.1005 11.1C86.1005 10.7 87.0005 13.7 87.7005 16.6C89.3005 23.4 86.7005 25.3 85.0005 25C82.5005 24.5 82.8005 21.3 81.5005 21.3C79.0005 21.3 73.2005 26 71.1005 28.3C69.8005 29.7 69.3005 30.3 69.3005 31.6C69.3005 32.5 70.7005 33.2 73.9005 32.7C77.1005 32.2 82.9005 29 84.9005 29.3C86.3005 29.5 86.4005 32.1 84.9005 34.2C81.7005 38.7 75.3005 41.3 70.1005 41.3Z" fill="#010101"/>
<path d="M98.6008 24.0999C96.2008 29.6999 94.2008 34.5999 93.4008 39.1999C92.5008 45.0999 85.5008 39.9999 86.5008 33.9999C88.1008 23.9999 94.9008 10.9999 99.6008 2.49994C101.801 -1.60006 104.701 0.299935 106.001 2.49994C107.501 4.89994 107.901 8.49993 107.001 9.39993C104.901 11.6999 99.6008 21.4999 98.6008 24.0999Z" fill="#010101"/>
<path d="M105.7 38.5998C104.3 44.2998 98.0001 38.2998 99.6001 32.3998C100.8 27.5998 102.8 22.1998 105.9 16.7998C110.1 9.49985 115.2 20.6998 112.9 23.4998C110 26.6998 107 32.9998 105.7 38.5998ZM116.1 13.5998C106.9 13.5998 109.4 1.09985 115.6 1.39985C118.7 1.49985 119.4 3.79985 119.8 6.69985C120.1 9.19985 118.9 13.5998 116.1 13.5998Z" fill="#010101"/>
<path d="M135.3 34.1C134.7 35.7 134.3 37.2 133.9 38.9C133.6 40.6 133.1 41.5 132 41.8C129.3 42.7 125.9 37.7 127.6 31.9C128 30.4 129.4 27.1 131.3 23.5C128.3 25.8 124 30.4 118.7 38.5C118.4 39.8 117.2 41.5 115.6 41.2C113.4 40.7 111 36.8 112.1 32.9C113.5 27.6 116.3 20 119.7 14.1C123.5 7.40001 127.9 13.6 127.6 17.3C130.4 14.4 133.3 12.1 135.5 11.8C139.5 11.3 144.5 18 142 21.6C138.9 26 136.4 31.4 135.3 34.1Z" fill="#010101"/>
<path d="M146.301 38.5998C144.901 44.2998 138.601 38.2998 140.201 32.3998C141.401 27.5998 143.401 22.1998 146.501 16.7998C150.701 9.49985 155.801 20.6998 153.501 23.4998C150.601 26.6998 147.601 32.9998 146.301 38.5998ZM156.701 13.5998C147.501 13.5998 150.001 1.09985 156.201 1.39985C159.301 1.49985 160.001 3.79985 160.401 6.69985C160.701 9.19985 159.501 13.5998 156.701 13.5998Z" fill="#010101"/>
<path d="M174.7 34.2999C174.1 35.7999 173.8 37.2999 173.4 38.8999C173.1 40.4999 172.6 41.3999 171.6 41.6999C169 42.5999 165.7 37.6999 167.3 32.0999C167.7 30.6999 169 27.3999 170.9 23.9999C168 26.1999 163.8 30.6999 158.7 38.4999C158.4 39.6999 157.2 41.3999 155.7 41.0999C153.5 40.5999 151.3 36.7999 152.3 32.9999C153.7 27.8999 156.4 20.4999 159.6 14.7999C163.2 8.29993 167.6 14.2999 167.3 17.8999C170 15.0999 172.8 12.8999 175 12.5999C178.9 12.0999 183.7 18.5999 181.3 22.0999C178.2 26.4999 175.8 31.6999 174.7 34.2999Z" fill="#010101"/>
<path d="M202.101 38.1999C199.301 43.7999 194.101 54.9999 186.501 54.9999C183.001 54.9999 179.001 52.3999 177.401 50.7999C175.501 48.8999 174.601 47.6999 175.301 45.4999C176.901 40.7999 185.301 48.7999 190.901 40.4999C189.601 40.7999 188.201 40.9999 186.601 40.9999C183.201 40.9999 179.601 36.7999 179.501 32.8999C179.501 29.2999 180.101 25.7999 183.101 21.6999C185.701 18.0999 192.801 13.0999 198.201 15.2999C199.201 15.6999 200.201 16.0999 201.101 16.6999L201.601 15.2999C203.401 10.4999 206.301 11.8999 207.801 14.4999C209.101 16.6999 209.101 19.8999 208.801 22.4999C208.301 25.9999 205.701 30.9999 202.101 38.1999ZM193.201 24.5999C190.001 25.9999 186.001 29.5999 186.101 31.8999C186.101 33.0999 194.001 30.5999 197.101 27.5999C197.401 26.6999 197.801 25.6999 198.201 24.7999C196.401 24.2999 194.401 24.0999 193.201 24.5999Z" fill="#010101"/>
<path d="M64.1 81.7999C62.4 86.8999 55.7 81.4999 55.4 77.6999C55.2 75.5999 55.3 71.1999 55.3 68.1999C52.6 71.6999 49.6 77.8999 47.8 81.9999C45.7 86.8999 40.3 79.7999 40.2 76.5999C39.9 67.9999 42.8 55.1999 46.7 48.2999C49.5 43.2999 55.9 49.5999 53.1 54.3999C52.5 55.4999 51.7 57.8999 50.6 60.5999C52.5 57.7999 54.5 54.4999 56.8 51.9999C60.5 47.9999 65 53.5999 63.9 56.9999C63.7 57.7999 63.5 60.0999 63.1 62.1999C66.1 56.8999 69.1 50.6999 72.6 45.8999C76.2 40.8999 80.5 51.3999 77.3 55.7999C72.2 62.5999 66.6 73.9999 64.1 81.7999Z" fill="#010101"/>
<path d="M100.8 68.0999C98 72.3999 94.6 74.7999 88.7 75.4999C83.7 76.0999 77 72.3999 76.5 67.6999C76 63.7999 76.7 62.1999 78.1 58.7999C79.8 54.4999 88.4 46.0999 94 45.9999C99.6 45.8999 102.4 49.3999 103.8 54.1999C104.9 58.5999 104.5 62.1999 100.8 68.0999ZM95.1 54.4999C91.8 55.0999 87.1 59.4999 85.3 62.5999C78.8 73.7999 98 65.8999 96.8 55.3999C96.6 54.3999 96.5 54.2999 95.1 54.4999Z" fill="#010101"/>
<path d="M168 78.1999C167.7 79.8999 167.2 80.7999 166 81.0999C162.5 82.0999 158.8 77.9999 159.3 72.1999C159.8 66.2999 160.7 59.8999 161.8 57.6999C158.7 60.3999 154.8 64.9999 151 71.0999C149.3 76.6999 142.3 72.1999 143.3 66.6999C143.5 65.2999 144.9 61.2999 146.7 57.4999C144.3 59.4999 140.8 63.0999 136.9 68.7999C136.3 69.6999 136.4 70.7999 136.1 71.7999C134.5 78.2999 127.5 71.4999 129.1 65.6999C130.5 60.3999 133.3 52.6999 136.7 46.5999C138.9 42.5999 141.4 43.2999 142.7 45.8999C143.4 47.3999 144 49.7999 143.6 51.4999C147.5 47.4999 150.3 45.0999 151.9 44.5999C155.9 43.2999 158.6 48.9999 157.8 51.5999C161 47.8999 164.5 44.7999 167.1 44.2999C171.1 43.6999 176.1 50.1999 173.6 53.8999C170.6 58.1999 168.3 76.4999 168 78.1999Z" fill="#010101"/>
<path d="M120.7 63.2999C123.2 64.5999 127.3 66.7999 127.2 70.3999C127.2 72.1999 125.8 73.0999 123.8 72.0999C121.1 70.6999 114.5 68.2999 110.1 67.2999C109.2 69.7999 108.7 71.1999 108 73.4999C106.6 78.0999 101.3 71.6999 102.6 67.5999C104.4 61.6999 106.1 57.3999 109.5 52.6999C108.1 50.8999 109.6 47.6999 112.3 47.0999C114 46.6999 114.9 46.5999 116.6 46.5999C120.4 46.5999 130.8 49.0999 131.3 53.7999C131.7 58.2999 125.7 61.2999 120.7 63.2999ZM117.2 53.4999C116.1 54.8999 115 56.4999 114.1 58.3999C116.5 57.5999 121.6 55.4999 124 54.0999C122 53.5999 119.6 53.4999 117.2 53.4999Z" fill="#010101"/>
</g>
<defs>
<clipPath id="clip0">
<rect width="209" height="83.9" fill="white"/>
</clipPath>
</defs>
</svg>
