<svg width="283" height="172" viewBox="0 0 283 172" fill="none" xmlns="http://www.w3.org/2000/svg">
<g clip-path="url(#clip0)">
<path fill-rule="evenodd" clip-rule="evenodd" d="M97.9053 61.2369V90.5135C97.9053 105.152 91.3296 111.739 79.883 111.739C68.4363 111.739 61.8606 104.908 61.8606 90.5135V61.2369H72.0895V93.6851C72.0895 99.5404 75.2556 102.712 79.883 102.712C84.5103 102.712 87.6764 99.5404 87.6764 93.6851V61.2369H97.9053ZM18.9966 40.4993C20.9449 40.4993 23.1368 39.2794 23.1368 36.8397C23.1368 34.4 21.6756 32.9362 13.8821 29.7645C4.62737 25.861 0.730637 20.9816 0.730637 14.6383C0.730637 5.61135 8.76764 0 18.0224 0C27.5207 0 34.5835 6.83121 35.8012 16.5901H23.1368C22.8933 13.6624 21.432 10.7348 17.5353 10.7348C15.5869 10.7348 13.6386 11.9546 13.6386 14.1504C13.6386 16.1021 15.0998 17.8099 20.4578 20.2496C31.9045 25.1291 36.0448 29.0326 36.0448 36.3518C36.0448 45.1348 28.4948 51.234 19.2401 51.234C8.76764 51.234 0.487091 44.1589 0 32.6922H12.6644C12.6644 36.3518 14.6127 40.4993 18.9966 40.4993ZM85.241 137.356C85.241 147.847 78.4217 152.97 70.8718 152.97L85.241 171.268H73.7943L60.1558 152.97V171.268H50.1704V121.498H66.7315C78.6652 121.498 85.241 127.109 85.241 137.356ZM75.0121 138.088V136.624C75.0121 132.721 72.5766 130.769 68.6799 130.769H59.9122V144.431H68.6799C72.5766 144.187 75.0121 141.991 75.0121 138.088ZM140.039 43.183V50.5021H110.083V0.731915H140.039V8.05106H118.363V21.4695H138.821V28.7887H118.363V43.183H140.039V43.183ZM267.657 47.3305V50.5021H239.162V0.731915H267.657V3.90355H242.571V23.4213H266.682V26.5929H242.571V47.5745H267.657V47.3305ZM27.0336 89.5376L29.9561 80.7546L37.7496 61.2369H50.6575V111.007H38.9673V87.5858L37.506 93.9291L31.1738 111.007H22.8933L16.5611 93.9291L15.0998 87.5858V111.007H3.16609V61.2369H16.074L23.8675 80.7546L27.0336 89.5376ZM87.92 50.5021V0.731915H97.9053V50.5021H87.92ZM60.1558 51.234C48.9527 51.234 42.3769 43.6709 42.3769 26.105V24.8851C42.3769 7.56312 48.9527 0 60.1558 0C70.6282 0 77.4475 6.34326 78.6652 20.7376H66.488C66.0009 13.4184 64.296 10.7348 60.6429 10.7348C57.2332 10.7348 55.2849 12.9305 55.2849 18.7858V32.2043C55.2849 38.0596 57.2332 40.2553 60.6429 40.2553C64.0525 40.2553 66.0009 37.8156 66.488 30.2525H78.6652C77.4475 45.1348 70.6282 51.234 60.1558 51.234ZM20.9449 131.501C16.8046 131.501 14.1256 133.94 14.1256 139.796V153.214C14.1256 158.826 16.5611 161.509 20.9449 161.509C25.3287 161.509 28.0077 159.313 28.2513 154.19H21.6756V144.919H38.9673V171.512H32.6351L31.1738 167.852C29.2255 170.292 25.3287 172.244 20.7014 172.244C8.5241 172.244 1.21773 163.949 1.21773 147.359V146.139C1.21773 129.305 8.5241 121.254 20.7014 121.254C30.6867 121.254 36.7754 126.865 38.7238 140.284H27.0336C26.79 133.696 24.3546 131.501 20.9449 131.501ZM222.601 92.7092V60.9929H227.472V90.5135C227.472 105.396 220.896 111.495 209.936 111.495C198.977 111.495 192.401 105.396 192.401 90.5135V61.2369H197.272V92.9532C197.272 102.956 202.143 107.591 210.18 107.591C218.217 107.591 222.601 102.956 222.601 92.7092ZM206.04 121.498C216.999 121.498 222.844 126.865 222.844 137.112C222.844 147.115 216.999 152.726 206.04 152.726H194.349V171.512H189.479V121.498H206.04ZM217.973 138.332V136.136C217.973 129.793 214.077 126.133 206.527 126.133H194.349V148.579H206.527C213.833 148.335 217.973 144.675 217.973 138.332ZM211.885 4.39149C204.335 4.39149 199.951 10.4908 199.951 20.4936V28.5447C199.951 40.4993 203.604 46.8426 211.885 46.8426C218.217 46.8426 222.357 42.939 223.575 33.6681H228.446C227.472 44.6468 221.627 51.234 211.885 51.234C200.925 51.234 194.837 42.939 194.837 28.7887V22.4454C194.837 8.53901 200.682 0 211.885 0C221.383 0 227.228 6.58723 228.446 17.322H223.575C222.357 8.53901 218.46 4.39149 211.885 4.39149ZM278.86 61.2369H283.244V111.007H279.834V67.8241L263.273 111.007H259.133L242.571 67.8241V111.007H239.162V61.2369H243.546L261.324 107.104L278.86 61.2369ZM170.725 61.2369H180.224H181.685V67.3362H180.224H170.725H157.33V82.7064H170.725H178.519H179.98V88.8057H178.519H170.725H157.33V104.908H170.725H180.224H181.685V111.007H180.224H170.725H150.755V61.2369H170.725ZM170.482 154.434V121.498H177.301V151.75C177.301 165.169 171.213 172 159.766 172C148.563 172 142.231 165.169 142.231 151.75V121.498H149.05V154.19C149.05 161.753 152.947 165.901 159.766 165.901C166.585 166.145 170.482 161.753 170.482 154.434ZM129.079 82.9504C137.603 86.366 141.013 90.7574 141.013 97.8326C141.013 106.128 134.194 111.739 124.939 111.739C114.954 111.739 107.404 105.64 106.186 94.417H115.197C116.171 101.004 119.337 104.42 124.939 104.42C129.323 104.42 132.002 102.224 132.002 98.3206C132.002 94.905 130.54 92.4653 124.452 90.0255L119.337 87.8298C110.57 84.1702 107.16 79.7787 107.16 73.9234C107.16 66.3603 113.736 60.505 123.478 60.505C132.976 60.505 139.065 66.3603 140.282 76.1192H131.515C130.784 70.9957 128.349 67.8241 122.991 67.8241C118.85 67.8241 115.928 70.2638 115.928 73.6794C115.928 76.1192 117.145 78.0709 122.503 80.2667L129.079 82.9504ZM113.005 121.01C124.695 121.01 132.002 129.061 132.002 144.187V149.067C132.002 164.193 124.695 172.244 113.005 172.244C101.315 172.244 94.0086 164.193 94.0086 149.067V144.187C94.0086 128.817 101.315 121.01 113.005 121.01ZM123.234 153.214V140.772C123.234 132.965 119.581 128.329 113.005 128.329C106.673 128.329 102.776 132.477 102.776 139.796V152.482C102.776 160.533 106.429 164.925 113.005 164.925C119.337 164.681 123.234 160.533 123.234 153.214ZM178.032 38.5475V0.731915H184.851V50.5021H177.788L159.522 17.8099L157.33 12.1986V50.2582H150.511V0.731915H157.818L175.84 33.1801L178.032 38.5475Z" fill="black"/>
</g>
<defs>
<clipPath id="clip0">
<rect width="283" height="172" fill="white"/>
</clipPath>
</defs>
</svg>
