<?xml version="1.0" encoding="utf-8"?>
<!-- Generator: Adobe Illustrator 24.2.3, SVG Export Plug-In . SVG Version: 6.00 Build 0)  -->
<svg version="1.1" id="Layer_1" xmlns="http://www.w3.org/2000/svg" xmlns:xlink="http://www.w3.org/1999/xlink" x="0px" y="0px"
	 viewBox="0 0 872.7 344.2" style="enable-background:new 0 0 872.7 344.2;" xml:space="preserve">
<style type="text/css">
	.st0{clip-path:url(#SVGID_2_);}
	.st1{fill-rule:evenodd;clip-rule:evenodd;}
</style>
<g>
	<defs>
		<rect id="SVGID_1_" width="875" height="345"/>
	</defs>
	<clipPath id="SVGID_2_">
		<use xlink:href="#SVGID_1_"  style="overflow:visible;"/>
	</clipPath>
	<g class="st0">
		<path class="st1" d="M301.6,188.6v90.2c0,45.1-20.2,65.4-55.5,65.4s-55.5-21-55.5-65.4v-90.2h31.5v100c0,18,9.8,27.8,24,27.8
			s24-9.8,24-27.8v-100H301.6z M58.5,124.8c6,0,12.8-3.8,12.8-11.3s-4.5-12-28.5-21.8C14.3,79.7,2.2,64.6,2.2,45.1
			C2.2,17.3,27,0,55.5,0c29.3,0,51,21,54.8,51.1h-39c-0.8-9-5.2-18-17.2-18c-6,0-12,3.8-12,10.5c0,6,4.5,11.3,21,18.8
			c35.3,15,48,27,48,49.6c0,27.1-23.3,45.8-51.8,45.8C27,157.8,1.5,136,0,100.7h39C39,112,45,124.8,58.5,124.8z M431.5,133v22.6
			h-92.3V2.2h92.3v22.5h-66.8v41.3h63v22.6h-63V133H431.5z M824.7,145.8v9.8h-87.8V2.2h87.8V12h-77.3v60.2h74.3v9.8h-74.3v64.6h77.3
			L824.7,145.8z M83.3,275.8l9-27.1l24-60.1h39.8v153.3h-36v-72.1l-4.5,19.5l-19.5,52.6H70.5L51,289.3l-4.5-19.5v72.1H9.8V188.6
			h39.8l24,60.1L83.3,275.8z M270.9,155.6V2.2h30.8v153.3H270.9z M185.3,157.8c-34.5,0-54.8-23.3-54.8-77.4v-3.8
			c0-53.4,20.3-76.7,54.8-76.7c32.3,0,53.3,19.5,57,63.9h-37.5c-1.5-22.5-6.8-30.8-18-30.8c-10.5,0-16.5,6.8-16.5,24.8v41.3
			c0,18,6,24.8,16.5,24.8s16.5-7.5,18-30.8h37.5C238.6,139,217.6,157.8,185.3,157.8z M685.8,285.6v-97.7h15v90.9
			c0,45.9-20.3,64.6-54,64.6s-54-18.8-54-64.6v-90.2h15v97.7c0,30.8,15,45.1,39.8,45.1S685.8,317.1,685.8,285.6z M652.8,13.6
			c-23.3,0-36.8,18.8-36.8,49.6V88c0,36.8,11.2,56.4,36.8,56.4c19.5,0,32.3-12,36-40.6h15c-3,33.8-21,54.1-51,54.1
			c-33.8,0-52.5-25.6-52.5-69.1V69.1c0-42.8,18-69.1,52.5-69.1c29.3,0,47.3,20.3,51,53.4h-15C685.1,26.3,673.1,13.5,652.8,13.6
			L652.8,13.6z M859.2,188.7h13.5v153.3h-10.5v-133l-51,133h-12.8l-51-133v133h-10.5V188.6h13.5l54.8,141.3L859.2,188.7z M526,188.7
			h33.8v18.8h-75v47.3h69.8v18.8h-69.9v49.6h75V342h-95.3V188.6L526,188.7z M397.7,255.5c26.3,10.5,36.8,24,36.8,45.8
			c0,25.5-21,42.8-49.5,42.8c-30.8,0-54-18.8-57.8-53.4h27.8c3,20.3,12.8,30.8,30,30.8c13.5,0,21.8-6.8,21.8-18.8
			c0-10.5-4.5-18-23.3-25.5l-15.8-6.8c-27-11.3-37.5-24.8-37.5-42.8c0-23.3,20.3-41.3,50.3-41.3c29.3,0,48,18,51.8,48.1h-27
			c-2.3-15.8-9.8-25.6-26.3-25.6c-12.8,0-21.8,7.5-21.8,18c0,7.5,3.8,13.5,20.3,20.3L397.7,255.5z M548.5,118.7V2.2h21v153.3h-21.8
			L491.5,54.9l-6.8-17.3v117.2h-21V2.2h22.5l55.5,100L548.5,118.7z"/>
	</g>
</g>
</svg>
