<svg id="Layer_1" data-name="Layer 1" xmlns="http://www.w3.org/2000/svg" xmlns:xlink="http://www.w3.org/1999/xlink" viewBox="0 0 872.67 344.2"><defs><style>.cls-1{fill:none;}.cls-2{clip-path:url(#clip-path);}.cls-3{fill-rule:evenodd;}</style><clipPath id="clip-path"><rect class="cls-1" width="875" height="345"/></clipPath></defs><g class="cls-2"><path class="cls-3" d="M301.64,188.63v90.18c0,45.09-20.25,65.39-55.52,65.39s-55.53-21.05-55.53-65.39V188.63h31.52v99.95c0,18,9.75,27.81,24,27.81s24-9.77,24-27.81V188.63ZM58.53,124.75c6,0,12.75-3.75,12.75-11.27s-4.5-12-28.51-21.79c-28.51-12-40.52-27.06-40.52-46.6C2.25,17.28,27,0,55.53,0c29.26,0,51,21,54.77,51.1h-39c-.75-9-5.25-18-17.25-18-6,0-12,3.75-12,10.52,0,6,4.5,11.27,21,18.79,35.27,15,48,27.05,48,49.6,0,27.05-23.26,45.84-51.77,45.84C27,157.82,1.5,136,0,100.7H39C39,112,45,124.75,58.53,124.75ZM431.46,133v22.55h-92.3V2.25h92.3V24.8H364.67V66.13h63V88.68h-63V133Zm393.19,12.77v9.78h-87.8V2.25h87.8V12H747.36V72.15h74.29v9.77H747.36v64.63h77.29Zm-741.36,130,9-27.06,24-60.12h39.76V341.94h-36V269.8l-4.5,19.53L96.05,341.94H70.53L51,289.33l-4.5-19.53v72.14H9.75V188.63H49.52l24,60.12ZM270.88,155.57V2.25h30.76V155.57Zm-85.54,2.25c-34.52,0-54.78-23.3-54.78-77.41V76.65C130.56,23.3,150.82,0,185.34,0c32.26,0,53.28,19.54,57,63.88H204.85c-1.5-22.55-6.75-30.81-18-30.81-10.5,0-16.51,6.76-16.51,24.8V99.2c0,18,6,24.8,16.51,24.8s16.51-7.51,18-30.81h37.52C238.62,139,217.6,157.82,185.34,157.82ZM685.83,285.58v-97.7h15v90.93c0,45.85-20.26,64.64-54,64.64s-54-18.79-54-64.64V188.63h15v97.7c0,30.81,15,45.09,39.77,45.09S685.83,317.14,685.83,285.58Zm-33-272c-23.26,0-36.76,18.79-36.76,49.6v24.8c0,36.82,11.25,56.36,36.76,56.36,19.51,0,32.27-12,36-40.58h15c-3,33.82-21,54.11-51,54.11-33.76,0-52.52-25.55-52.52-69.14V69.14C600.29,26.3,618.3,0,652.81,0c29.27,0,47.28,20.29,51,53.36h-15C685.08,26.3,673.07,13.53,652.81,13.53Zm206.35,175.1h13.51V341.94H862.16v-133l-51,133H798.38l-51-133v133H736.85V188.63h13.51l54.78,141.29Zm-333.16,0h33.77v18.79h-75v47.34h69.79v18.79H484.73v49.6h75v18.79h-95.3V188.63ZM397.69,255.52c26.26,10.52,36.77,24,36.77,45.84,0,25.55-21,42.84-49.53,42.84-30.76,0-54-18.79-57.77-53.36h27.76c3,20.29,12.76,30.81,30,30.81,13.51,0,21.77-6.76,21.77-18.79,0-10.52-4.51-18-23.27-25.55l-15.75-6.76c-27-11.28-37.52-24.8-37.52-42.84,0-23.3,20.26-41.33,50.27-41.33,29.27,0,48,18,51.78,48.09h-27c-2.26-15.78-9.76-25.55-26.27-25.55-12.75,0-21.76,7.52-21.76,18,0,7.51,3.75,13.53,20.26,20.29ZM548.51,118.74V2.25h21V155.57H547.76L491.49,54.86l-6.76-17.28V154.81h-21V2.25h22.51l55.53,100Z"/></g></svg>