<svg width="284" height="112" viewBox="0 0 284 112" fill="none" xmlns="http://www.w3.org/2000/svg">
<g clip-path="url(#clip0)">
<path fill-rule="evenodd" clip-rule="evenodd" d="M97.9053 61.2369V90.5135C97.9053 105.152 91.3296 111.739 79.883 111.739C68.4363 111.739 61.8606 104.908 61.8606 90.5135V61.2369H72.0895V93.6851C72.0895 99.5404 75.2556 102.712 79.883 102.712C84.5103 102.712 87.6764 99.5404 87.6764 93.6851V61.2369H97.9053ZM18.9966 40.4993C20.9449 40.4993 23.1368 39.2794 23.1368 36.8397C23.1368 34.4 21.6756 32.9362 13.8821 29.7645C4.62737 25.861 0.730637 20.9816 0.730637 14.6383C0.730637 5.61135 8.76764 0 18.0224 0C27.5207 0 34.5835 6.83121 35.8012 16.5901H23.1368C22.8933 13.6624 21.432 10.7348 17.5353 10.7348C15.5869 10.7348 13.6386 11.9546 13.6386 14.1504C13.6386 16.1021 15.0998 17.8099 20.4578 20.2496C31.9045 25.1291 36.0448 29.0326 36.0448 36.3518C36.0448 45.1348 28.4948 51.234 19.2401 51.234C8.76764 51.234 0.487091 44.1589 0 32.6922H12.6644C12.6644 36.3518 14.6127 40.4993 18.9966 40.4993ZM140.039 43.183V50.5021H110.083V0.731915H140.039V8.05106H118.363V21.4695H138.821V28.7887H118.363V43.183H140.039ZM267.657 47.3305V50.5021H239.162V0.731915H267.657V3.90355H242.571V23.4213H266.682V26.5929H242.571V47.5745H267.657V47.3305ZM27.0336 89.5376L29.9561 80.7546L37.7496 61.2369H50.6575V111.007H38.9673V87.5858L37.506 93.9291L31.1738 111.007H22.8933L16.5611 93.9291L15.0998 87.5858V111.007H3.16609V61.2369H16.074L23.8675 80.7546L27.0336 89.5376ZM87.92 50.5021V0.731915H97.9053V50.5021H87.92ZM60.1558 51.234C48.9527 51.234 42.3769 43.6709 42.3769 26.105V24.8851C42.3769 7.56312 48.9527 0 60.1558 0C70.6282 0 77.4475 6.34326 78.6652 20.7376H66.488C66.0009 13.4184 64.296 10.7348 60.6429 10.7348C57.2332 10.7348 55.2849 12.9305 55.2849 18.7858V32.2043C55.2849 38.0596 57.2332 40.2553 60.6429 40.2553C64.0525 40.2553 66.0009 37.8156 66.488 30.2525H78.6652C77.4475 45.1348 70.6282 51.234 60.1558 51.234ZM222.601 92.7092V60.9929H227.472V90.5135C227.472 105.396 220.896 111.495 209.936 111.495C198.977 111.495 192.401 105.396 192.401 90.5135V61.2369H197.272V92.9532C197.272 102.956 202.143 107.591 210.18 107.591C218.217 107.591 222.601 102.956 222.601 92.7092ZM211.885 4.39149C204.335 4.39149 199.951 10.4908 199.951 20.4936V28.5447C199.951 40.4993 203.604 46.8426 211.885 46.8426C218.217 46.8426 222.357 42.939 223.575 33.6681H228.446C227.472 44.6468 221.627 51.234 211.885 51.234C200.925 51.234 194.837 42.939 194.837 28.7887V22.4454C194.837 8.53901 200.682 0 211.885 0C221.383 0 227.228 6.58723 228.446 17.322H223.575C222.357 8.53901 218.46 4.39149 211.885 4.39149ZM278.86 61.2369H283.244V111.007H279.834V67.8241L263.273 111.007H259.133L242.571 67.8241V111.007H239.162V61.2369H243.546L261.324 107.104L278.86 61.2369ZM170.725 61.2369H180.224H181.685V67.3362H180.224H170.725H157.33V82.7064H170.725H178.519H179.98V88.8057H178.519H170.725H157.33V104.908H170.725H180.224H181.685V111.007H180.224H170.725H150.755V61.2369H170.725ZM129.079 82.9504C137.603 86.366 141.013 90.7574 141.013 97.8326C141.013 106.128 134.194 111.739 124.939 111.739C114.954 111.739 107.404 105.64 106.186 94.417H115.197C116.171 101.004 119.337 104.42 124.939 104.42C129.323 104.42 132.002 102.224 132.002 98.3206C132.002 94.905 130.54 92.4653 124.452 90.0255L119.337 87.8298C110.57 84.1702 107.16 79.7787 107.16 73.9234C107.16 66.3603 113.736 60.505 123.478 60.505C132.976 60.505 139.065 66.3603 140.282 76.1191H131.515C130.784 70.9957 128.349 67.8241 122.991 67.8241C118.85 67.8241 115.928 70.2638 115.928 73.6794C115.928 76.1192 117.145 78.0709 122.503 80.2667L129.079 82.9504ZM178.032 38.5475V0.731915H184.851V50.5021H177.788L159.522 17.8099L157.33 12.1986V50.2582H150.511V0.731915H157.818L175.84 33.1801L178.032 38.5475Z" fill="black"/>
</g>
<defs>
<clipPath id="clip0">
<rect width="284" height="112" fill="white"/>
</clipPath>
</defs>
</svg>
