<svg width="267" height="71" viewBox="0 0 267 71" fill="none" xmlns="http://www.w3.org/2000/svg">
<g clip-path="url(#clip0)">
<path d="M20.4151 58.7905C15.0778 58.7905 10.8079 61.8429 8.67301 63.9662C8.67301 63.9662 3.60254 69.0092 0.133278 70.7345C-0.000155191 70.8672 -0.000155191 70.9999 0.133278 70.9999H31.2232C37.3612 70.9999 40.2967 68.8765 43.8994 65.6915C43.8994 65.6915 49.2367 60.7812 52.8394 59.1887C53.2397 59.0559 53.1063 58.7905 52.8394 58.7905C52.9728 58.7905 20.4151 58.7905 20.4151 58.7905ZM73.7884 58.7905C68.4511 58.7905 64.1812 61.8429 62.0463 63.9662C62.0463 63.9662 56.9758 69.0092 53.5066 70.7345C53.3731 70.8672 53.3731 70.9999 53.5066 70.9999H84.5965C90.7345 70.9999 93.67 68.8765 97.2727 65.6915C97.2727 65.6915 102.477 60.7812 106.213 59.1887C106.613 59.0559 106.613 58.7905 106.213 58.7905C106.346 58.7905 73.7884 58.7905 73.7884 58.7905ZM127.295 58.7905C121.958 58.7905 117.688 61.8429 115.553 63.9662C115.553 63.9662 110.483 69.0092 107.013 70.7345C106.88 70.8672 106.88 70.9999 107.013 70.9999H138.103C144.241 70.9999 147.043 68.8765 150.779 65.6915C150.779 65.6915 156.117 60.7812 159.719 59.1887C160.12 59.0559 160.12 58.7905 159.719 58.7905C159.853 58.7905 127.295 58.7905 127.295 58.7905ZM180.668 58.7905C175.331 58.7905 171.061 61.8429 168.926 63.9662C168.926 63.9662 163.722 69.0092 160.387 70.7345C160.253 70.8672 160.253 70.9999 160.387 70.9999H191.477C197.615 70.9999 200.55 68.8765 204.153 65.6915C204.153 65.6915 209.49 60.7812 213.093 59.1887C213.493 59.0559 213.36 58.7905 213.093 58.7905C213.226 58.7905 180.668 58.7905 180.668 58.7905ZM234.175 58.7905C228.838 58.7905 224.568 61.8429 222.433 63.9662C222.433 63.9662 217.363 69.0092 213.893 70.7345C213.76 70.8672 213.76 70.9999 213.893 70.9999H244.983C251.121 70.9999 254.057 68.8765 257.66 65.6915C257.66 65.6915 262.863 60.7812 266.6 59.1887C267 59.0559 267 58.7905 266.6 58.7905C266.733 58.7905 234.175 58.7905 234.175 58.7905Z" fill="#0054A4" stroke="white" stroke-width="0.0787" stroke-miterlimit="11.474"/>
<path d="M129.164 0C117.822 0 106.747 3.31776 106.747 14.5981C106.747 34.1065 140.906 23.7551 140.906 35.6991C140.906 39.5477 134.901 41.1402 129.964 41.1402C121.158 41.1402 115.153 39.8131 107.414 35.3009V45.1215C113.152 46.8467 120.891 47.7757 129.43 47.7757C141.172 47.7757 152.247 44.7234 152.247 33.3103C152.247 13.0056 118.089 22.1626 118.089 12.2093C118.089 8.22804 123.559 6.76822 128.363 6.76822C136.369 6.76822 145.042 9.15701 149.846 13.5364V3.05234C143.708 1.19439 135.435 0 129.164 0ZM189.475 0.13271C168.927 0.13271 155.45 9.95327 155.45 24.8168C155.45 38.486 167.859 47.643 186.54 47.643C192.544 47.643 198.015 46.8467 204.286 45.3869V33.8411C199.883 38.486 194.546 40.3439 188.808 40.3439C177.867 40.3439 170.261 33.5757 170.261 23.7551C170.261 14.0673 178 7.03365 188.942 7.03365C194.946 7.03365 199.616 9.15701 203.486 12.8729V1.3271C199.616 0.530841 194.546 0.13271 189.475 0.13271ZM237.244 0.13271C219.631 0.13271 207.089 10.2187 207.089 24.5514C207.089 38.486 218.297 47.7757 234.976 47.7757C252.723 47.7757 264.999 37.9551 264.999 23.6224C264.999 9.55514 253.924 0.13271 237.244 0.13271ZM1.86816 1.59252V12.4748C5.73773 9.55514 13.7437 8.36075 22.5503 8.36075V38.2206C22.5503 42.6 22.15 43.7944 20.282 46.0505H37.6283C35.6268 43.7944 35.3599 42.6 35.3599 38.2206V8.09533C42.9656 8.22804 52.0391 9.55514 55.9086 12.4748V1.59252H1.86816ZM60.5788 1.59252C62.4469 3.8486 62.7137 5.1757 62.7137 9.55514V38.3533C62.7137 42.7327 62.4469 44.0598 60.7122 46.1832H102.61V35.3009C96.8727 39.415 85.9311 39.415 81.5278 39.2822H75.3899V26.8075H79.9266C82.9956 26.8075 88.4664 27.2056 91.6687 28.1346V18.8449C88.5998 19.9065 82.9956 20.172 79.9266 20.172H75.3899V8.36075H81.5278C86.9986 8.36075 96.4724 9.42243 99.9416 12.4748V1.59252H60.5788ZM236.177 6.90093C245.384 6.90093 251.522 14.4654 251.522 23.8879C251.522 33.3103 245.384 40.8748 236.177 40.8748C226.837 40.8748 220.699 33.3103 220.699 23.8879C220.699 14.4654 226.703 6.90093 236.177 6.90093Z" fill="#F02E25" stroke="white" stroke-width="0.03" stroke-miterlimit="3.864"/>
</g>
<defs>
<clipPath id="clip0">
<rect width="267" height="71" fill="white"/>
</clipPath>
</defs>
</svg>
